<svg version="1.1" xmlns="http://www.w3.org/2000/svg" width="48px"
     height="48px" viewBox="0,0,256,256">
    <g fill="#dcdcdc" fill-rule="nonzero" stroke="none" stroke-width="1" stroke-linecap="butt" stroke-linejoin="miter"
       stroke-miterlimit="10" stroke-dasharray="" stroke-dashoffset="0" style="mix-blend-mode: normal">
        <g transform="scale(4,4)">
            <path d="M37.70313,5.13477l-6.70312,5.86523l3.34961,-5.86133l-3.75781,0.00391l-10.5918,10.61523l0.00781,7.28516l8.52344,8.50391c0.002,0.002 0.00386,0.00191 0.00586,0.00391l3.36914,3.37109l0.00391,-0.00195l9.07813,9.05859l7.28516,-0.00781l10.58984,-10.61523l-0.00195,-3.86719l-5.86133,2.51172l5.85742,-5.85742v-0.07422l-20.98047,-20.93359zM43.9668,20l5.77344,5h-7.69727l2.88672,3h-14.92969l8,-3l-2.69336,-3zM27.66406,33.50586l-2.01562,2.01758l2.82812,2.82812l2.01563,-2.01562zM24.23438,36.9375l-2.09375,2.09375l2.82813,2.82813l2.09375,-2.09375zM20.72852,40.44531l-2.11133,2.10938c0.03,0.024 0.0677,0.0345 0.0957,0.0625l2.75,2.75l2.09375,-2.09375zM17.23438,43.93555l-2.10937,2.11133l2.82813,2.82617l2.09375,-2.09375l-2.74805,-2.74805c-0.028,-0.028 -0.03945,-0.0647 -0.06445,-0.0957zM13.71094,47.46094l-2.09375,2.09375l2.82812,2.82812l2.09375,-2.09375zM10.20313,50.96875l-0.48828,0.48828l-4.85156,2.67969l1,4l4,1l2.83203,-5l-0.00195,-0.00195l0.33789,-0.33789z"/>
        </g>
    </g>
</svg>
